<mxfile host="app.diagrams.net" modified="2024-03-05T08:52:44.092Z" agent="Mozilla/5.0 (Macintosh; Intel Mac OS X 10.15; rv:123.0) Gecko/20100101 Firefox/123.0" version="23.1.4" etag="uW3RFtcwTId-TIqS5jjk" type="github">
  <diagram name="หน้า-1" id="FsMO-pj8TltQ22SZ88RI">
    <mxGraphModel>
      <root>
        <mxCell id="0" />
        <mxCell id="1" parent="0" />
      </root>
    </mxGraphModel>
  </diagram>
</mxfile>
